<mxfile host="Electron" modified="2023-11-20T16:58:27.573Z" agent="Mozilla/5.0 (Windows NT 10.0; Win64; x64) AppleWebKit/537.36 (KHTML, like Gecko) draw.io/22.1.2 Chrome/114.0.5735.289 Electron/25.9.4 Safari/537.36" etag="w0Jy6E6AOYwxYO_j-XWT" version="22.1.2" type="device">
  <diagram name="Страница — 1" id="0iM6popx21GP6y-XJrgQ">
    <mxGraphModel dx="703" dy="837" grid="1" gridSize="10" guides="1" tooltips="1" connect="1" arrows="1" fold="1" page="1" pageScale="1" pageWidth="827" pageHeight="1169" math="0" shadow="0">
      <root>
        <mxCell id="0" />
        <mxCell id="1" parent="0" />
        <mxCell id="jbioex9ZuQKa1p60_58v-1" style="edgeStyle=orthogonalEdgeStyle;rounded=0;orthogonalLoop=1;jettySize=auto;html=1;exitX=0.5;exitY=1;exitDx=0;exitDy=0;entryX=0.5;entryY=0;entryDx=0;entryDy=0;" parent="1" source="jbioex9ZuQKa1p60_58v-2" target="jbioex9ZuQKa1p60_58v-4" edge="1">
          <mxGeometry relative="1" as="geometry" />
        </mxCell>
        <mxCell id="jbioex9ZuQKa1p60_58v-2" value="start" style="ellipse;whiteSpace=wrap;html=1;" parent="1" vertex="1">
          <mxGeometry x="342.5" y="30" width="80" height="40" as="geometry" />
        </mxCell>
        <mxCell id="jbioex9ZuQKa1p60_58v-8" style="edgeStyle=orthogonalEdgeStyle;rounded=0;orthogonalLoop=1;jettySize=auto;html=1;exitX=0.5;exitY=1;exitDx=0;exitDy=0;entryX=0.5;entryY=0;entryDx=0;entryDy=0;" parent="1" source="jbioex9ZuQKa1p60_58v-4" target="jbioex9ZuQKa1p60_58v-6" edge="1">
          <mxGeometry relative="1" as="geometry" />
        </mxCell>
        <mxCell id="jbioex9ZuQKa1p60_58v-4" value="max_value =7;&lt;br&gt;value[max_value];&lt;br&gt;exchange;&lt;br&gt;average_element;" style="shape=parallelogram;perimeter=parallelogramPerimeter;whiteSpace=wrap;html=1;fixedSize=1;" parent="1" vertex="1">
          <mxGeometry x="295" y="80" width="175" height="100" as="geometry" />
        </mxCell>
        <mxCell id="jbioex9ZuQKa1p60_58v-5" value="revers_array" style="rounded=0;whiteSpace=wrap;html=1;" parent="1" vertex="1">
          <mxGeometry x="250" width="265" height="30" as="geometry" />
        </mxCell>
        <mxCell id="jbioex9ZuQKa1p60_58v-12" style="edgeStyle=orthogonalEdgeStyle;rounded=0;orthogonalLoop=1;jettySize=auto;html=1;exitX=0.5;exitY=1;exitDx=0;exitDy=0;entryX=0.5;entryY=0;entryDx=0;entryDy=0;" parent="1" source="jbioex9ZuQKa1p60_58v-6" edge="1">
          <mxGeometry relative="1" as="geometry">
            <mxPoint x="382.385" y="330" as="targetPoint" />
          </mxGeometry>
        </mxCell>
        <mxCell id="jbioex9ZuQKa1p60_58v-6" value="for(i=0;i&amp;lt;max_value/2;++i)&lt;br&gt;&lt;br&gt;exchange=value[i];&lt;br style=&quot;border-color: var(--border-color);&quot;&gt;&lt;br style=&quot;border-color: var(--border-color);&quot;&gt;value[i]=value[max_value-1-i];&lt;br style=&quot;border-color: var(--border-color);&quot;&gt;&lt;br style=&quot;border-color: var(--border-color);&quot;&gt;value[max_value-1-i]=exchange;" style="shape=hexagon;perimeter=hexagonPerimeter2;whiteSpace=wrap;html=1;fixedSize=1;" parent="1" vertex="1">
          <mxGeometry x="274.88" y="190" width="215.25" height="120" as="geometry" />
        </mxCell>
        <mxCell id="jbioex9ZuQKa1p60_58v-15" style="edgeStyle=orthogonalEdgeStyle;rounded=0;orthogonalLoop=1;jettySize=auto;html=1;exitX=0.5;exitY=1;exitDx=0;exitDy=0;entryX=0.5;entryY=0;entryDx=0;entryDy=0;" parent="1" target="jbioex9ZuQKa1p60_58v-14" edge="1">
          <mxGeometry relative="1" as="geometry">
            <mxPoint x="382.385" y="380" as="sourcePoint" />
          </mxGeometry>
        </mxCell>
        <mxCell id="jbioex9ZuQKa1p60_58v-14" value="end" style="ellipse;whiteSpace=wrap;html=1;" parent="1" vertex="1">
          <mxGeometry x="342.5" y="430" width="80" height="40" as="geometry" />
        </mxCell>
        <mxCell id="MKJ58CZjLVEH1wcAZXnc-1" value="print value[max_value];" style="rounded=0;whiteSpace=wrap;html=1;" vertex="1" parent="1">
          <mxGeometry x="322.51" y="330" width="120" height="60" as="geometry" />
        </mxCell>
      </root>
    </mxGraphModel>
  </diagram>
</mxfile>
